<svg xmlns="http://www.w3.org/2000/svg" xmlns:xlink="http://www.w3.org/1999/xlink" version="1.1" width="256" height="256" viewBox="0 0 256 256" xml:space="preserve">

<defs>
</defs>
<g style="stroke: none; stroke-width: 0; stroke-dasharray: none; stroke-linecap: butt; stroke-linejoin: miter; stroke-miterlimit: 10; fill: none; fill-rule: nonzero; opacity: 1;" transform="translate(1.4065934065934016 1.4065934065934016) scale(2.81 2.81)" >
	<path d="M 45 0 C 20.147 0 0 20.147 0 45 c 0 24.853 20.147 45 45 45 s 45 -20.147 45 -45 C 90 20.147 69.853 0 45 0 z M 58.27 65.5 c 0 1.104 -0.896 2 -2 2 H 24.5 c -1.104 0 -2 -0.896 -2 -2 V 33.73 c 0 -1.104 0.896 -2 2 -2 h 31.77 c 1.104 0 2 0.896 2 2 V 65.5 z M 67.5 56.27 c 0 1.104 -0.896 2 -2 2 s -2 -0.896 -2 -2 V 26.5 H 33.73 c -1.104 0 -2 -0.896 -2 -2 s 0.896 -2 2 -2 H 65.5 c 1.104 0 2 0.896 2 2 V 56.27 z" style="stroke: none; stroke-width: 1; stroke-dasharray: none; stroke-linecap: butt; stroke-linejoin: miter; stroke-miterlimit: 10; fill: rgb(0,0,0); fill-rule: nonzero; opacity: 1;" transform=" matrix(1 0 0 1 0 0) " stroke-linecap="round" />
	<rect x="26.5" y="35.73" rx="0" ry="0" width="27.77" height="27.77" style="stroke: none; stroke-width: 1; stroke-dasharray: none; stroke-linecap: butt; stroke-linejoin: miter; stroke-miterlimit: 10; fill: rgb(0,0,0); fill-rule: nonzero; opacity: 1;" transform=" matrix(1 0 0 1 0 0) "/>
</g>
</svg>