<svg xmlns="http://www.w3.org/2000/svg" xmlns:xlink="http://www.w3.org/1999/xlink" version="1.1" width="256" height="256" viewBox="0 0 256 256" xml:space="preserve">

<defs>
</defs>
<g style="stroke: none; stroke-width: 0; stroke-dasharray: none; stroke-linecap: butt; stroke-linejoin: miter; stroke-miterlimit: 10; fill: none; fill-rule: nonzero; opacity: 1;" transform="translate(1.4065934065934016 1.4065934065934016) scale(2.81 2.81)" >
	<circle cx="29.226" cy="44.996" r="7.226" style="stroke: none; stroke-width: 1; stroke-dasharray: none; stroke-linecap: butt; stroke-linejoin: miter; stroke-miterlimit: 10; fill: rgb(0,0,0); fill-rule: nonzero; opacity: 1;" transform="  matrix(1 0 0 1 0 0) "/>
	<path d="M 45 0 C 20.147 0 0 20.147 0 45 c 0 24.853 20.147 45 45 45 s 45 -20.147 45 -45 C 90 20.147 69.853 0 45 0 z M 70 47 h -4.429 v 3.816 c 0 1.104 -0.896 2 -2 2 s -2 -0.896 -2 -2 V 47 H 56.48 v 7.226 c 0 1.104 -0.896 2 -2 2 s -2 -0.896 -2 -2 V 47 H 40.262 c -0.947 5.237 -5.531 9.226 -11.037 9.226 C 23.036 56.226 18 51.189 18 45 c 0 -6.19 5.036 -11.226 11.226 -11.226 c 5.506 0 10.09 3.988 11.037 9.226 H 70 c 1.104 0 2 0.896 2 2 S 71.104 47 70 47 z" style="stroke: none; stroke-width: 1; stroke-dasharray: none; stroke-linecap: butt; stroke-linejoin: miter; stroke-miterlimit: 10; fill: rgb(0,0,0); fill-rule: nonzero; opacity: 1;" transform=" matrix(1 0 0 1 0 0) " stroke-linecap="round" />
</g>
</svg>