<svg xmlns="http://www.w3.org/2000/svg" xmlns:xlink="http://www.w3.org/1999/xlink" version="1.1" width="256" height="256" viewBox="0 0 256 256" xml:space="preserve">

<defs>
</defs>
<g style="stroke: none; stroke-width: 0; stroke-dasharray: none; stroke-linecap: butt; stroke-linejoin: miter; stroke-miterlimit: 10; fill: none; fill-rule: nonzero; opacity: 1;" transform="translate(1.4065934065934016 1.4065934065934016) scale(2.81 2.81)" >
	<path d="M 45 0 C 20.187 0 0 20.187 0 45 c 0 24.813 20.187 45 45 45 c 24.813 0 45 -20.187 45 -45 C 90 20.187 69.813 0 45 0 z M 45 88 C 21.29 88 2 68.71 2 45 C 2 21.29 21.29 2 45 2 c 23.71 0 43 19.29 43 43 C 88 68.71 68.71 88 45 88 z" style="stroke: none; stroke-width: 1; stroke-dasharray: none; stroke-linecap: butt; stroke-linejoin: miter; stroke-miterlimit: 10; fill: rgb(0,0,0); fill-rule: nonzero; opacity: 1;" transform=" matrix(1 0 0 1 0 0) " stroke-linecap="round" />
	<path d="M 29.952 26.376 c 0.552 0 1 -0.448 1 -1 v -6.672 l 4.469 7.199 c 0.186 0.299 0.51 0.473 0.85 0.473 c 0.091 0 0.183 -0.012 0.274 -0.038 c 0.429 -0.123 0.726 -0.515 0.726 -0.962 V 15.197 c 0 -0.552 -0.448 -1 -1 -1 s -1 0.448 -1 1 v 6.672 l -4.469 -7.199 c -0.236 -0.38 -0.693 -0.558 -1.124 -0.435 c -0.429 0.123 -0.726 0.515 -0.726 0.962 v 10.179 C 28.952 25.929 29.4 26.376 29.952 26.376 z" style="stroke: none; stroke-width: 1; stroke-dasharray: none; stroke-linecap: butt; stroke-linejoin: miter; stroke-miterlimit: 10; fill: rgb(0,0,0); fill-rule: nonzero; opacity: 1;" transform=" matrix(1 0 0 1 0 0) " stroke-linecap="round" />
	<path d="M 40.822 26.376 h 4.513 c 0.552 0 1 -0.448 1 -1 s -0.448 -1 -1 -1 h -3.513 v -3.089 h 1.952 c 0.552 0 1 -0.448 1 -1 s -0.448 -1 -1 -1 h -1.952 v -3.09 h 3.513 c 0.552 0 1 -0.448 1 -1 s -0.448 -1 -1 -1 h -4.513 c -0.552 0 -1 0.448 -1 1 v 10.179 C 39.822 25.929 40.27 26.376 40.822 26.376 z" style="stroke: none; stroke-width: 1; stroke-dasharray: none; stroke-linecap: butt; stroke-linejoin: miter; stroke-miterlimit: 10; fill: rgb(0,0,0); fill-rule: nonzero; opacity: 1;" transform=" matrix(1 0 0 1 0 0) " stroke-linecap="round" />
	<path d="M 50.56 25.63 c 0.108 0.416 0.471 0.715 0.899 0.744 c 0.022 0.001 0.045 0.002 0.067 0.002 c 0.403 0 0.77 -0.243 0.925 -0.619 l 2.001 -4.854 l 2 4.854 c 0.164 0.397 0.566 0.651 0.992 0.617 c 0.429 -0.029 0.791 -0.328 0.899 -0.744 l 2.671 -10.179 c 0.141 -0.534 -0.179 -1.081 -0.713 -1.221 c -0.532 -0.141 -1.082 0.179 -1.221 0.713 l -1.915 7.297 l -1.789 -4.342 c -0.154 -0.375 -0.52 -0.619 -0.925 -0.619 s -0.771 0.244 -0.925 0.619 l -1.79 4.343 l -1.915 -7.297 c -0.14 -0.535 -0.686 -0.854 -1.221 -0.713 c -0.534 0.14 -0.854 0.687 -0.713 1.221 L 50.56 25.63 z" style="stroke: none; stroke-width: 1; stroke-dasharray: none; stroke-linecap: butt; stroke-linejoin: miter; stroke-miterlimit: 10; fill: rgb(0,0,0); fill-rule: nonzero; opacity: 1;" transform=" matrix(1 0 0 1 0 0) " stroke-linecap="round" />
	<path d="M 29.953 30.646 c -0.552 0 -1 0.448 -1 1 v 10.179 c 0 0.552 0.448 1 1 1 s 1 -0.448 1 -1 V 31.646 C 30.953 31.093 30.505 30.646 29.953 30.646 z" style="stroke: none; stroke-width: 1; stroke-dasharray: none; stroke-linecap: butt; stroke-linejoin: miter; stroke-miterlimit: 10; fill: rgb(0,0,0); fill-rule: nonzero; opacity: 1;" transform=" matrix(1 0 0 1 0 0) " stroke-linecap="round" />
	<path d="M 37.049 42.825 c 0.552 0 1 -0.448 1 -1 v -9.179 h 2.211 c 0.552 0 1 -0.448 1 -1 s -0.448 -1 -1 -1 h -6.421 c -0.552 0 -1 0.448 -1 1 s 0.448 1 1 1 h 2.21 v 9.179 C 36.049 42.377 36.497 42.825 37.049 42.825 z" style="stroke: none; stroke-width: 1; stroke-dasharray: none; stroke-linecap: butt; stroke-linejoin: miter; stroke-miterlimit: 10; fill: rgb(0,0,0); fill-rule: nonzero; opacity: 1;" transform=" matrix(1 0 0 1 0 0) " stroke-linecap="round" />
	<path d="M 48.192 32.646 c 0.553 0 1 -0.448 1 -1 s -0.447 -1 -1 -1 H 43.68 c -0.552 0 -1 0.448 -1 1 v 10.179 c 0 0.552 0.448 1 1 1 h 4.513 c 0.553 0 1 -0.448 1 -1 s -0.447 -1 -1 -1 H 44.68 v -3.089 h 1.952 c 0.553 0 1 -0.448 1 -1 s -0.447 -1 -1 -1 H 44.68 v -3.09 H 48.192 z" style="stroke: none; stroke-width: 1; stroke-dasharray: none; stroke-linecap: butt; stroke-linejoin: miter; stroke-miterlimit: 10; fill: rgb(0,0,0); fill-rule: nonzero; opacity: 1;" transform=" matrix(1 0 0 1 0 0) " stroke-linecap="round" />
	<path d="M 60.047 42.825 c 0.553 0 1 -0.448 1 -1 V 31.646 c 0 -0.434 -0.28 -0.819 -0.693 -0.952 c -0.408 -0.132 -0.864 0.015 -1.118 0.368 l -2.849 3.961 l -2.85 -3.961 c -0.253 -0.353 -0.708 -0.5 -1.118 -0.368 c -0.413 0.133 -0.693 0.518 -0.693 0.952 v 10.179 c 0 0.552 0.447 1 1 1 s 1 -0.448 1 -1 v -7.077 l 1.85 2.571 c 0.376 0.523 1.249 0.522 1.623 0 l 1.849 -2.57 v 7.076 C 59.047 42.377 59.494 42.825 60.047 42.825 z" style="stroke: none; stroke-width: 1; stroke-dasharray: none; stroke-linecap: butt; stroke-linejoin: miter; stroke-miterlimit: 10; fill: rgb(0,0,0); fill-rule: nonzero; opacity: 1;" transform=" matrix(1 0 0 1 0 0) " stroke-linecap="round" />
	<path d="M 60.048 48.808 H 29.952 c -0.552 0 -1 0.447 -1 1 v 28.73 c 0 0.358 0.191 0.689 0.502 0.867 c 0.31 0.18 0.692 0.176 1.002 -0.004 L 45 70.902 l 14.543 8.499 c 0.156 0.091 0.33 0.137 0.505 0.137 c 0.172 0 0.344 -0.044 0.498 -0.133 c 0.311 -0.178 0.502 -0.509 0.502 -0.867 v -28.73 C 61.048 49.255 60.601 48.808 60.048 48.808 z M 59.048 76.796 l -13.543 -7.915 c -0.156 -0.091 -0.33 -0.137 -0.504 -0.137 s -0.349 0.046 -0.504 0.137 l -13.543 7.915 V 50.808 h 28.096 V 76.796 z" style="stroke: none; stroke-width: 1; stroke-dasharray: none; stroke-linecap: butt; stroke-linejoin: miter; stroke-miterlimit: 10; fill: rgb(0,0,0); fill-rule: nonzero; opacity: 1;" transform=" matrix(1 0 0 1 0 0) " stroke-linecap="round" />
</g>
</svg>